<?xml version="1.0" standalone="no"?>
<!DOCTYPE svg PUBLIC "-//W3C//DTD SVG 20010904//EN"
 "http://www.w3.org/TR/2001/REC-SVG-20010904/DTD/svg10.dtd">
<svg version="1.0" xmlns="http://www.w3.org/2000/svg"
 width="2000.000000pt" height="1467.000000pt" style="background-color:black" viewBox="0 0 2000.000000 1467.000000"
 preserveAspectRatio="xMidYMid meet">

<g transform="translate(0.000000,1467.000000) scale(0.100000,-0.100000)"
fill="#FFFFFF" stroke="none">
<path d="M3481 10569 c-286 -25 -619 -107 -886 -216 -762 -313 -1372 -928
-1678 -1693 -90 -225 -152 -463 -193 -745 -26 -170 -26 -600 0 -770 41 -282
103 -520 193 -745 306 -765 916 -1380 1678 -1693 357 -146 767 -227 1155 -227
1018 0 1976 514 2537 1360 267 404 414 794 489 1305 26 170 26 600 0 770 -41
282 -103 520 -193 745 -306 765 -916 1380 -1678 1693 -275 113 -599 190 -905
217 -133 11 -383 11 -519 -1z m229 -1610 c536 -35 1142 -165 1585 -341 137
-54 407 -187 482 -237 106 -71 149 -159 141 -287 -10 -155 -130 -264 -290
-264 -54 0 -72 7 -221 84 -606 313 -1328 469 -2172 469 -481 -1 -883 -50
-1255 -153 -175 -49 -310 6 -375 153 -24 53 -27 69 -23 136 8 143 80 229 232
277 178 56 554 127 816 154 272 29 729 32 1080 9z m-70 -1053 c562 -52 1110
-214 1588 -468 211 -113 262 -171 262 -301 0 -37 -6 -82 -14 -101 -38 -92
-138 -152 -236 -143 -46 4 -82 19 -189 77 -375 204 -729 324 -1174 400 -256
43 -403 54 -707 54 -388 0 -635 -29 -970 -115 -176 -46 -224 -46 -296 -4 -157
92 -157 338 1 426 83 46 496 140 742 170 264 31 688 33 993 5z m-45 -991 c487
-44 911 -171 1310 -392 131 -73 161 -96 185 -143 24 -46 27 -135 6 -183 -26
-63 -111 -117 -184 -117 -12 0 -75 28 -140 61 -320 168 -483 232 -752 298
-270 65 -498 91 -815 91 -314 0 -559 -26 -919 -97 -218 -43 -247 -41 -311 20
-63 61 -79 133 -50 218 18 49 47 84 88 105 64 34 513 113 777 138 199 19 608
19 805 1z"/>
<path d="M18910 8695 l0 -105 30 0 30 0 0 105 0 105 -30 0 -30 0 0 -105z"/>
<path d="M19050 8646 l0 -156 30 0 30 0 0 61 c0 57 1 60 23 57 15 -2 33 -22
56 -60 32 -55 36 -58 72 -58 l39 0 -32 53 c-17 28 -38 59 -45 68 -12 15 -11
20 11 42 19 19 26 37 26 65 0 61 -25 76 -126 81 l-84 3 0 -156z m124 98 c26
-10 20 -62 -8 -76 -39 -17 -56 -4 -56 42 0 36 3 40 24 40 13 0 31 -3 40 -6z"/>
<path d="M18909 8544 c-17 -21 0 -49 31 -49 31 0 48 28 31 49 -8 9 -21 16 -31
16 -10 0 -23 -7 -31 -16z"/>
<path d="M12952 8515 c-125 -28 -228 -111 -282 -228 -35 -75 -50 -160 -50
-289 l0 -98 -90 0 -90 0 0 -140 0 -140 90 0 90 0 0 -480 0 -480 170 0 170 0 0
480 0 479 123 3 122 3 0 135 0 135 -120 5 -120 5 -3 90 c-4 108 10 164 50 202
28 26 34 28 111 27 45 -1 91 -3 102 -5 19 -4 20 2 23 139 l3 142 -28 11 c-46
18 -201 20 -271 4z"/>
<path d="M11995 8472 c-48 -23 -69 -45 -90 -95 -34 -82 -2 -197 70 -246 43
-29 118 -38 170 -21 148 49 178 261 48 350 -48 33 -141 39 -198 12z"/>
<path d="M7600 8424 c-175 -32 -271 -75 -351 -154 -94 -93 -139 -208 -139
-355 0 -155 45 -263 154 -370 61 -61 94 -82 243 -159 224 -115 287 -175 285
-272 -1 -112 -94 -174 -260 -174 -129 0 -265 49 -364 131 -26 21 -49 39 -52
39 -3 0 -6 -85 -6 -189 0 -145 3 -191 13 -200 54 -44 270 -91 423 -91 281 0
470 92 559 274 68 138 70 334 6 472 -54 116 -150 198 -356 305 -215 111 -270
160 -282 246 -14 108 98 193 253 193 108 0 256 -45 335 -100 l29 -21 0 180 c0
209 11 189 -122 221 -80 20 -309 35 -368 24z"/>
<path d="M14620 7530 l0 -870 173 2 172 3 3 328 2 327 63 0 c115 0 134 -23
338 -407 l134 -253 193 0 c180 0 194 1 190 18 -10 38 -332 589 -379 648 -27
35 -65 73 -84 84 -19 12 -35 25 -35 29 0 4 26 19 58 34 111 53 193 145 242
272 34 87 35 271 2 365 -56 161 -181 251 -388 279 -41 6 -212 11 -380 11
l-304 0 0 -870z m617 555 c47 -20 71 -41 93 -85 62 -122 15 -285 -100 -350
-38 -21 -61 -25 -152 -28 l-108 -4 0 241 0 241 115 0 c81 0 127 -5 152 -15z"/>
<path d="M11375 8248 c-49 -15 -122 -40 -162 -54 l-72 -26 -3 -131 -3 -132
-85 -5 -85 -5 0 -135 0 -135 88 -3 87 -3 0 -312 c0 -172 5 -341 11 -377 21
-133 84 -226 184 -272 43 -20 66 -23 170 -23 92 0 131 4 168 18 l47 19 0 140
c0 130 -1 140 -17 133 -108 -44 -188 -16 -213 74 -5 20 -10 160 -10 319 l0
282 120 0 120 0 0 140 0 139 -117 3 -118 3 -3 180 c-1 99 -6 182 -10 186 -4 3
-47 -7 -97 -23z"/>
<path d="M18333 8223 l-162 -54 -3 -132 -3 -132 -82 -3 -83 -3 0 -139 0 -140
83 0 84 0 7 -341 c3 -187 11 -361 17 -386 15 -72 60 -152 103 -189 76 -65 231
-91 368 -63 99 20 98 19 98 175 l0 136 -22 -7 c-88 -27 -105 -28 -144 -9 -21
11 -48 35 -59 54 -19 33 -20 52 -20 330 l0 295 120 5 120 5 0 135 0 135 -120
5 -120 5 -3 188 c-1 103 -6 187 -10 186 -4 0 -80 -25 -169 -56z"/>
<path d="M8953 7915 c-86 -26 -148 -74 -220 -171 l-22 -29 0 93 -1 92 -167 -2
-168 -3 -3 -902 -2 -903 170 0 170 0 0 350 c0 193 2 350 4 350 3 0 28 -24 56
-54 31 -33 71 -63 103 -76 104 -46 260 -35 362 26 106 62 202 206 247 369 30
110 32 393 4 500 -50 191 -146 311 -285 355 -73 23 -184 26 -248 5z m88 -301
c37 -18 85 -76 98 -117 34 -103 29 -308 -10 -413 -44 -118 -139 -179 -243
-155 -68 16 -109 50 -143 118 -27 57 -28 62 -28 223 0 159 1 167 27 220 41 84
84 124 151 140 39 10 113 2 148 -16z"/>
<path d="M10108 7915 c-147 -30 -290 -136 -360 -270 -47 -92 -67 -159 -78
-275 -43 -441 189 -740 575 -740 245 0 429 110 526 314 50 106 69 205 69 358
0 144 -16 222 -66 325 -113 236 -370 347 -666 288z m267 -308 c81 -45 125
-157 125 -322 0 -236 -83 -359 -241 -359 -125 0 -201 64 -235 195 -21 83 -15
281 11 354 25 68 98 140 156 153 59 14 135 5 184 -21z"/>
<path d="M16301 7914 c-178 -48 -326 -210 -383 -421 -28 -104 -31 -343 -5
-447 36 -143 130 -282 232 -341 159 -93 444 -100 632 -15 l63 29 0 135 c0 75
-2 136 -5 136 -2 0 -31 -14 -64 -30 -173 -88 -405 -72 -486 34 -29 38 -55 107
-55 147 l0 29 353 2 352 3 -2 140 c-4 230 -44 361 -148 473 -61 66 -125 104
-210 127 -73 19 -202 18 -274 -1z m236 -270 c40 -28 74 -103 80 -174 l6 -60
-198 0 -198 0 7 47 c8 64 54 141 107 182 40 31 47 33 106 29 42 -3 72 -11 90
-24z"/>
<path d="M17370 7910 c-131 -35 -221 -105 -271 -209 -17 -35 -24 -70 -27 -142
-10 -217 64 -311 320 -411 178 -69 230 -137 160 -208 -77 -77 -291 -60 -440
34 -22 13 -43 22 -46 19 -3 -4 -6 -70 -6 -148 0 -103 4 -145 13 -153 30 -25
166 -53 282 -59 256 -11 437 72 513 235 24 51 27 69 27 167 0 100 -2 115 -28
167 -47 96 -117 146 -321 229 -43 18 -94 45 -112 62 -29 24 -34 36 -34 71 0
47 23 76 73 95 68 26 215 5 310 -45 36 -19 49 -21 53 -11 2 7 3 74 2 148 l-3
134 -70 18 c-109 29 -301 32 -395 7z"/>
<path d="M11910 7280 l0 -620 170 0 170 0 0 620 0 620 -170 0 -170 0 0 -620z"/>
<path d="M13270 7894 c0 -3 99 -282 220 -620 l220 -614 -40 -102 c-44 -112
-60 -136 -111 -167 -44 -27 -128 -28 -186 -2 -36 17 -42 17 -47 4 -9 -22 -7
-266 2 -280 23 -36 239 -45 329 -13 109 38 204 135 278 285 29 58 125 335 276
789 127 384 233 705 236 712 4 12 -21 14 -163 12 l-169 -3 -78 -285 c-43 -157
-97 -361 -121 -455 l-44 -170 -7 50 c-6 42 -160 634 -211 813 l-15 52 -184 0
c-102 0 -185 -3 -185 -6z"/>
</g>
</svg>
